<svg id="Capa_1" data-name="Capa 1" xmlns="http://www.w3.org/2000/svg" xmlns:xlink="http://www.w3.org/1999/xlink" viewBox="0 0 150.26 36"><defs><style>.cls-1{fill:#ebecf0;}.cls-2{fill:url(#Degradado_sin_nombre_70);}</style><linearGradient id="Degradado_sin_nombre_70" x1="0.4" y1="18" x2="36.33" y2="18" gradientUnits="userSpaceOnUse"><stop offset="0" stop-color="#002b7a"/><stop offset="1" stop-color="#008dff"/></linearGradient></defs><path class="cls-1" d="M47.26,9.4H59v2.52H50.37v4.86h8.12V19.3H50.37v5.15H59V27H47.26Z"/><path class="cls-1" d="M61.67,19.07H69.1v2.47H61.67Z"/><path class="cls-1" d="M76.12,26.08a7.44,7.44,0,0,1-3-3.14,10.3,10.3,0,0,1-1-4.78,10.23,10.23,0,0,1,1-4.75,7.39,7.39,0,0,1,3-3.14,9,9,0,0,1,4.53-1.09A9.92,9.92,0,0,1,84,9.73a7.29,7.29,0,0,1,2.61,1.54l-1,2.32A8.33,8.33,0,0,0,83.2,12.2a7.1,7.1,0,0,0-2.5-.43,4.87,4.87,0,0,0-3.94,1.65,7.15,7.15,0,0,0-1.39,4.74,7.32,7.32,0,0,0,1.38,4.78,4.84,4.84,0,0,0,4,1.66,7.1,7.1,0,0,0,2.5-.43,8.33,8.33,0,0,0,2.36-1.39l1,2.32A7.29,7.29,0,0,1,84,26.64a9.92,9.92,0,0,1-3.34.55A9,9,0,0,1,76.12,26.08Z"/><path class="cls-1" d="M91.42,26.38a5.43,5.43,0,0,1-2.22-2.26,7.24,7.24,0,0,1-.78-3.44,7.26,7.26,0,0,1,.78-3.45A5.41,5.41,0,0,1,91.42,15a6.83,6.83,0,0,1,3.35-.79,6.66,6.66,0,0,1,3.3.79,5.39,5.39,0,0,1,2.21,2.25,7.26,7.26,0,0,1,.78,3.45,7.24,7.24,0,0,1-.78,3.44,5.41,5.41,0,0,1-2.21,2.26,6.66,6.66,0,0,1-3.3.79A6.83,6.83,0,0,1,91.42,26.38Zm5.73-2.65A4.8,4.8,0,0,0,98,20.68a4.84,4.84,0,0,0-.83-3.05,2.86,2.86,0,0,0-2.37-1.05,2.9,2.9,0,0,0-2.4,1.05,4.78,4.78,0,0,0-.84,3.05,4.8,4.8,0,0,0,.83,3.05,2.88,2.88,0,0,0,2.38,1A2.93,2.93,0,0,0,97.15,23.73Z"/><path class="cls-1" d="M103.72,8.81h3.07V27h-3.07Z"/><path class="cls-1" d="M110.17,8.81h3.06V27h-3.06Z"/><path class="cls-1" d="M127.52,20.9h-8.59a4.47,4.47,0,0,0,1,3,3.53,3.53,0,0,0,2.68.95,6.15,6.15,0,0,0,3.8-1.33l.88,2.12a6.93,6.93,0,0,1-2.18,1.15,8.47,8.47,0,0,1-2.63.43,6.56,6.56,0,0,1-4.81-1.73,6.34,6.34,0,0,1-1.75-4.74,7.25,7.25,0,0,1,.76-3.38A5.65,5.65,0,0,1,118.83,15a6,6,0,0,1,3.13-.82A5.17,5.17,0,0,1,126,15.85a6.6,6.6,0,0,1,1.5,4.58ZM120,17.14a3.47,3.47,0,0,0-1,2.11h5.8a3.48,3.48,0,0,0-.86-2.13,2.59,2.59,0,0,0-1.93-.71A2.78,2.78,0,0,0,120,17.14Z"/><path class="cls-1" d="M132.4,26.38a5.41,5.41,0,0,1-2.19-2.23,7.2,7.2,0,0,1-.77-3.4,7.15,7.15,0,0,1,.8-3.43A5.74,5.74,0,0,1,132.51,15a6.82,6.82,0,0,1,3.4-.82,8,8,0,0,1,2.58.42,4.9,4.9,0,0,1,2,1.16l-.86,2.17a6,6,0,0,0-1.68-1,5,5,0,0,0-1.75-.33,3.34,3.34,0,0,0-2.62,1.05,4.42,4.42,0,0,0-.93,3,4.36,4.36,0,0,0,.92,3,3.31,3.31,0,0,0,2.63,1,4.81,4.81,0,0,0,1.75-.34,6.56,6.56,0,0,0,1.68-1l.86,2.17a5.51,5.51,0,0,1-2,1.16,8.31,8.31,0,0,1-2.65.42A6.86,6.86,0,0,1,132.4,26.38Z"/><path class="cls-1" d="M146.54,16.83v5.58c0,1.46.69,2.19,2.05,2.19a4.46,4.46,0,0,0,1.24-.19v2.44a5.78,5.78,0,0,1-2,.29A4.32,4.32,0,0,1,144.59,26a4.77,4.77,0,0,1-1.13-3.41V16.83h-2.39V14.51h2.39v-3l3.08-1v4.08h3.31v2.32Z"/><path class="cls-2" d="M26.67,33.67,36.2,4A2.73,2.73,0,0,0,33,.49L2.56,7.08a2.73,2.73,0,0,0-1.45,4.5L22.05,34.67A2.73,2.73,0,0,0,26.67,33.67Zm.91-14.75-12.95,2.8a1.14,1.14,0,0,1-1.33-1.46L17.35,7.65a1.14,1.14,0,0,1,1.93-.42l8.9,9.82A1.13,1.13,0,0,1,27.58,18.92Z"/></svg>