<svg id="Capa_1" data-name="Capa 1" xmlns="http://www.w3.org/2000/svg" xmlns:xlink="http://www.w3.org/1999/xlink" viewBox="0 0 150.26 36"><defs><style>.cls-1{fill:#01327f;}.cls-2{fill:url(#Degradado_sin_nombre_70);}</style><linearGradient id="Degradado_sin_nombre_70" x1="0.38" y1="18" x2="36.31" y2="18" gradientUnits="userSpaceOnUse"><stop offset="0" stop-color="#002b7a"/><stop offset="1" stop-color="#008dff"/></linearGradient></defs><path class="cls-1" d="M47.23,9.4H59v2.52H50.34v4.86h8.12V19.3H50.34v5.15H59V27H47.23Z"/><path class="cls-1" d="M61.65,19.07h7.43v2.47H61.65Z"/><path class="cls-1" d="M76.1,26.08a7.47,7.47,0,0,1-3-3.14,10.43,10.43,0,0,1-1-4.78,10.35,10.35,0,0,1,1-4.75,7.41,7.41,0,0,1,3-3.14,9,9,0,0,1,4.53-1.09A9.92,9.92,0,0,1,84,9.73a7.37,7.37,0,0,1,2.61,1.54l-1,2.32a8.47,8.47,0,0,0-2.36-1.39,7.1,7.1,0,0,0-2.5-.43,4.87,4.87,0,0,0-3.94,1.65,7.15,7.15,0,0,0-1.39,4.74,7.32,7.32,0,0,0,1.38,4.78,4.83,4.83,0,0,0,4,1.66,7.1,7.1,0,0,0,2.5-.43,8.47,8.47,0,0,0,2.36-1.39l1,2.32A7.37,7.37,0,0,1,84,26.64a9.92,9.92,0,0,1-3.34.55A9,9,0,0,1,76.1,26.08Z"/><path class="cls-1" d="M91.4,26.38a5.43,5.43,0,0,1-2.22-2.26,7.24,7.24,0,0,1-.78-3.44,7.26,7.26,0,0,1,.78-3.45A5.41,5.41,0,0,1,91.4,15a6.81,6.81,0,0,1,3.34-.79,6.7,6.7,0,0,1,3.31.79,5.39,5.39,0,0,1,2.21,2.25,7.26,7.26,0,0,1,.78,3.45,7.24,7.24,0,0,1-.78,3.44,5.41,5.41,0,0,1-2.21,2.26,6.7,6.7,0,0,1-3.31.79A6.81,6.81,0,0,1,91.4,26.38Zm5.73-2.65A4.8,4.8,0,0,0,98,20.68a4.78,4.78,0,0,0-.84-3.05,3.22,3.22,0,0,0-4.76,0,4.78,4.78,0,0,0-.84,3.05,4.8,4.8,0,0,0,.83,3.05,2.88,2.88,0,0,0,2.38,1A2.94,2.94,0,0,0,97.13,23.73Z"/><path class="cls-1" d="M103.7,8.81h3.06V27H103.7Z"/><path class="cls-1" d="M110.14,8.81h3.07V27h-3.07Z"/><path class="cls-1" d="M127.49,20.9h-8.58a4.42,4.42,0,0,0,1,3,3.52,3.52,0,0,0,2.67.95,6.11,6.11,0,0,0,3.8-1.33l.89,2.12a6.93,6.93,0,0,1-2.18,1.15,8.52,8.52,0,0,1-2.63.43,6.56,6.56,0,0,1-4.81-1.73,6.35,6.35,0,0,1-1.76-4.74,7.26,7.26,0,0,1,.77-3.38A5.65,5.65,0,0,1,118.81,15a6,6,0,0,1,3.13-.82A5.17,5.17,0,0,1,126,15.85a6.6,6.6,0,0,1,1.49,4.58ZM120,17.14a3.58,3.58,0,0,0-1,2.11h5.8a3.42,3.42,0,0,0-.85-2.13,2.61,2.61,0,0,0-1.93-.71A2.82,2.82,0,0,0,120,17.14Z"/><path class="cls-1" d="M132.38,26.38a5.43,5.43,0,0,1-2.2-2.23,7.19,7.19,0,0,1-.76-3.4,7.15,7.15,0,0,1,.8-3.43A5.74,5.74,0,0,1,132.49,15a6.82,6.82,0,0,1,3.4-.82,8,8,0,0,1,2.57.42,4.88,4.88,0,0,1,2,1.16l-.86,2.17a6,6,0,0,0-1.68-1,5,5,0,0,0-1.75-.33,3.34,3.34,0,0,0-2.62,1.05,4.42,4.42,0,0,0-.94,3,4.36,4.36,0,0,0,.93,3,3.31,3.31,0,0,0,2.63,1,4.81,4.81,0,0,0,1.75-.34,6.56,6.56,0,0,0,1.68-1l.86,2.17a5.56,5.56,0,0,1-2,1.16,8.29,8.29,0,0,1-2.64.42A6.86,6.86,0,0,1,132.38,26.38Z"/><path class="cls-1" d="M146.52,16.83v5.58c0,1.46.68,2.19,2,2.19a4.34,4.34,0,0,0,1.23-.19v2.44a5.72,5.72,0,0,1-2,.29A4.32,4.32,0,0,1,144.57,26a4.77,4.77,0,0,1-1.13-3.41V16.83H141V14.51h2.4v-3l3.08-1v4.08h3.31v2.32Z"/><path class="cls-2" d="M26.65,33.67,36.18,4A2.73,2.73,0,0,0,33,.49L2.53,7.08a2.73,2.73,0,0,0-1.44,4.5L22,34.67A2.73,2.73,0,0,0,26.65,33.67Zm.91-14.75-13,2.8a1.13,1.13,0,0,1-1.32-1.46l4-12.61a1.14,1.14,0,0,1,1.93-.42l8.9,9.82A1.13,1.13,0,0,1,27.56,18.92Z"/></svg>